<?xml version="1.0" encoding="UTF-8" standalone="no"?>
<svg xmlns="http://www.w3.org/2000/svg" viewBox="0 0 8.4666665 8.4666669" height="32" width="32">
  <g transform="matrix(0.26458333,0,0,0.26458333,-77.466219,-25.338597)">
    <path fill="#000000" d="m 318.71039,110.75572 c -0.0375,-0.23726 -0.73093,-1.09953 -2.07415,-2.58633 -0.0249,-0.28748 0.44972,-0.70614 1.41823,-1.24955 l 2.73635,-2.40541 c 0.6123,-0.7871 0.97462,-2.04921 1.09341,-3.78598 l -0.0375,-0.40611 c -0.10624,-1.224436 -0.99346,-2.211616 -2.66151,-2.973769 -0.98717,-0.668473 -2.76145,-1.024684 -5.32283,-1.080858 -2.12422,0.181244 -4.89824,0.937118 -8.30934,2.255396 -0.93711,0.680867 -2.00542,1.355617 -3.2049,2.024091 l 0.0187,0.21247 c 0.0813,-0.006 0.18736,-0.0499 0.31854,-0.1249 0.13746,-0.0126 0.21247,0.0499 0.22503,0.17497 l 0.2123,-0.1188 0.10624,-0.006 0.006,0.1 c 0.006,0.1 -0.73721,0.68103 -2.24284,1.74306 l 0.11862,0.18752 -0.10606,0.006 -0.23131,-0.0813 c 0.006,0.0624 -0.1,0.10624 -0.31854,0.12491 l 0.0124,0.11251 0.24998,0.27492 c -0.0811,0.006 -0.19364,-0.0188 -0.33738,-0.0687 -0.48723,0.0438 -0.96206,0.39355 -1.43063,1.05591 l 0.11863,0.18736 c 0.40611,-0.37488 0.64353,-0.56224 0.71226,-0.56851 l 0.025,0.30614 c -0.0687,0.006 -0.17497,0.0499 -0.31854,0.12491 l 0.25609,0.38744 c 0.4935,-0.53118 1.03707,-0.98718 1.6307,-1.36834 0.29359,0.075 0.44973,0.16869 0.456,0.26864 l 0.22486,-0.0187 c 1.61188,-1.19337 3.20508,-2.05548 4.78572,-2.58649 l 0.0187,0.21231 c -0.29359,0.43733 -0.49351,0.66236 -0.59974,0.67475 0.0126,0.15002 0.0624,0.2812 0.15613,0.39371 0.0251,0.26865 -0.69342,2.08043 -2.14916,5.42908 -3.30486,7.78443 -6.07888,13.5446 -8.33411,17.26829 0.006,0.0748 0.0499,0.17481 0.13118,0.29988 0.55596,-0.13119 0.90589,-0.26865 1.05575,-0.4 l 0.11879,-0.0124 0.0187,0.21247 0.20619,-0.0188 0.21247,-0.11862 c 0.006,0.0624 0.075,0.0937 0.21859,0.0811 l 0.0188,0.21247 c 0.0187,0.20619 -0.0999,0.51845 -0.34993,0.94967 -0.22486,0.25609 -0.46856,0.79338 -0.72465,1.61187 l 0.006,0.1 0.2062,-0.0188 c 0.89978,-1.00585 1.58064,-1.99303 2.0492,-2.9551 2.624,-0.76843 4.62331,-1.5243 6.01015,-2.26778 1.39329,-0.1188 2.45531,-0.4874 3.18012,-1.09342 l -0.0126,-0.11235 -0.52474,0.15613 -0.11879,0.0126 -0.0126,-0.11251 c 1.02469,-0.15613 1.73066,-0.38116 2.12422,-0.69342 1.99303,-1.53703 3.49866,-2.624 4.51707,-3.26753 2.09282,-1.53686 3.74991,-3.71496 4.07329,-4.49196 0.25145,-0.70191 0.70487,-1.25736 0.37488,-2.16799 z m -18.49273,-7.25953 -0.10624,0.006 -0.0187,-0.19364 0.43106,-0.0375 0.006,0.1 c -0.0687,0.006 -0.17497,0.0438 -0.31243,0.12507 z m -2.10538,21.06039 c -0.24998,-0.11235 -0.47484,-0.15614 -0.66847,-0.13746 l -0.0251,-0.30616 c -0.0124,-0.11862 0.0563,-0.19991 0.20619,-0.23114 0.13746,-0.0124 0.21875,0.0876 0.23114,0.28748 0.36249,-0.44361 0.5624,-0.66847 0.59991,-0.67475 l 0.23114,0.0937 c -0.075,0.62486 -0.26865,0.9434 -0.5748,0.96835 z m 22.49746,-23.53454 c -0.10624,0.0126 -0.31871,-0.31854 -0.62486,-0.97462 l -0.0187,-0.193644 c 0.19992,-0.0187 0.40611,0.306154 0.62469,0.974624 z m -0.30004,-2.330243 -0.0874,0.206193 -3.05505,-1.274495 c 2.03665,0.06873 3.08628,0.424776 3.14245,1.068302 z m -12.90108,11.076903 -0.43105,0.0375 -0.0188,-0.1938 0.43105,-0.0373 z m -0.34993,-6.65367 0.10624,-0.006 0.0249,0.30615 c -0.1,0.006 -0.23114,0.15613 -0.39355,0.44361 l -0.0188,-0.21247 c 0.1938,-0.23114 0.29376,-0.40611 0.2812,-0.53101 z m -0.90589,2.1366 0.0375,0.40611 -0.10623,0.006 -0.0375,-0.40611 z m -0.47484,0.76232 0.20619,-0.0188 c -0.0187,0.33738 -0.11235,0.51862 -0.28103,0.53101 l -0.10624,0.006 c 0.13118,-0.22486 0.19364,-0.39983 0.18108,-0.51845 z m -0.35605,1.06202 0.11863,-0.0126 0.006,0.1 -0.19363,0.32499 -0.2062,0.0187 -0.006,-0.1 c 0.2062,-0.0187 0.29987,-0.12491 0.2812,-0.3311 z m -0.34993,0.95596 -0.0625,0.51217 -0.10624,0.006 -0.0436,-0.50606 z m -3.50478,9.96481 c -0.13746,0.6997 -0.28747,1.05575 -0.44361,1.06831 l -0.006,-0.1 c -0.0375,-0.34366 0.11252,-0.66848 0.44989,-0.96835 z m -0.64352,1.39313 0.006,0.1 c 0.0124,0.13746 -0.0501,0.21875 -0.18752,0.22486 l -0.006,-0.1 c -0.0126,-0.11863 0.0499,-0.19364 0.18736,-0.22486 z m -0.18736,2.89264 0.32482,-0.0312 0.0124,0.11251 c -0.0811,0.006 -0.18735,0.0499 -0.31854,0.12491 l -0.20619,0.0187 c -0.0126,-0.10607 0.0562,-0.18736 0.18736,-0.22486 z m 9.24628,-2.85514 c -1.82434,0.89961 -2.89892,1.51191 -3.21746,1.83045 -1.97419,0.68732 -2.9551,1.11209 -2.93643,1.28078 -1.75544,0.69358 -2.91131,1.20593 -3.46727,1.52447 -0.13118,0.0126 -0.3187,-0.0375 -0.56852,-0.15002 -0.0312,-0.35604 0.13119,-0.64336 0.47468,-0.8745 0.30615,-0.0251 0.59974,0.0187 0.88094,0.1373 0.32498,-0.16869 0.8935,-0.35605 1.69944,-0.55596 l -0.0188,-0.21247 -0.64964,0.0563 c 0.0811,-0.11252 0.70581,-0.40611 1.88035,-0.88095 l 0.32499,-0.0312 0.006,0.1 c -0.55613,0.0499 -0.86228,0.21247 -0.93101,0.50607 0.0126,0.13118 0.0876,0.18735 0.22503,0.17496 0.4185,-0.26253 0.62469,-0.41866 0.61841,-0.46245 0.79354,-0.14985 2.98632,-1.29944 6.57867,-3.44232 l 0.0188,0.19363 c 0.006,0.0937 -0.29988,0.35605 -0.91846,0.80594 z m -5.51036,1.81179 c 0.5249,-0.0438 0.97462,-0.25609 1.3495,-0.6247 0.14986,-0.0126 0.23114,0.0436 0.23742,0.17481 -0.25625,0.0251 -0.74976,0.23741 -1.46813,0.6498 l -0.10624,0.006 z m 8.89024,-6.82865 -2.75519,2.18055 c -2.0492,1.34323 -3.14873,2.01782 -3.30486,2.03037 -3.26125,1.79312 -5.29161,2.72396 -6.07888,2.79269 l -0.11863,0.0124 c 0.1,-0.36844 1.54925,-3.33609 4.36078,-8.92146 1.23699,-0.10624 3.18623,-0.68087 5.84146,-1.7305 l 0.64964,-0.0563 c 1.34322,-0.11863 2.34907,0.14374 3.01143,0.7686 l 0.0373,0.40594 c -0.49978,1.43707 -1.04946,2.27423 -1.64309,2.51776 z m -5.3853,-3.02994 0.44361,-0.0375 0.006,0.1 -0.44345,0.0375 z m 6.22874,-1.05591 0.32498,-0.0312 c 0.29987,0.14374 0.456,0.26865 0.46856,0.38116 l 0.006,0.1 c -0.28731,0.0249 -0.55596,-0.1249 -0.79965,-0.44989 z m 0.88094,-5.01669 c -0.28731,0.34349 -1.07458,0.93084 -2.36163,1.75545 -0.42478,0.0375 -2.00542,0.6498 -4.74177,1.84929 -0.13746,-0.0625 -0.2812,-0.0874 -0.43733,-0.0748 l -0.0188,-0.1938 c -0.0312,-0.39355 0.14374,-0.88706 0.53101,-1.4868 0.21247,-1.12465 0.44361,-1.76817 0.69986,-1.9243 l 2.28035,-5.12921 c -0.0251,-0.318704 0.46228,-0.562404 1.46185,-0.731094 l 0.32482,-0.0312 0.0251,0.29376 c 0.98074,-0.15002 1.59304,-0.23742 1.83045,-0.25626 1.81179,-0.15613 2.75519,0.21248 2.8302,1.093424 l 0.20619,-0.0188 -0.0438,-0.518454 0.22486,-0.0188 c 0.53101,0.293754 0.81849,0.649804 0.85599,1.068304 0.0249,0.28748 -0.13118,0.64352 -0.46244,1.06847 -0.1373,0.0124 -0.21859,-0.0876 -0.23114,-0.28749 l -0.22486,0.0188 -0.0499,0.6247 c -0.91845,1.37445 -1.58692,2.08043 -1.99931,2.11793 -0.37488,0.51862 -0.60602,0.77471 -0.6997,0.78099 z m 1.3994,3.59234 c -0.18736,-0.12506 -0.33737,-0.18124 -0.44972,-0.17496 l -0.0251,-0.30615 0.20619,-0.0187 0.45617,0.26864 c 0.0187,0.14358 -0.0438,0.21859 -0.18753,0.23115 z m 1.44946,1.71795 c 0.19992,0.0813 0.31871,0.16868 0.34366,0.24997 l -0.1,0.025 0.006,0.006 c -0.0188,0 -0.0438,0.006 -0.0626,0.0126 l -0.14985,0.11863 z m 0.13746,0.86227 -0.0187,-0.0813 0.26237,-0.0624 0.0187,0.0813 z" />
    <path fill="#F9DC3E" d="m 318.42919,110.25593 c -0.1573,-0.45125 -0.73093,-1.09953 -2.07415,-2.58649 -0.025,-0.28732 0.44988,-0.70598 1.41823,-1.24938 l 2.73635,-2.40542 c 0.6123,-0.7871 0.97462,-2.0492 1.09341,-3.78598 l -0.0375,-0.406104 c -0.10624,-1.224438 -0.9933,-2.211618 -2.66151,-2.97377 -0.98701,-0.668474 -2.76129,-1.024685 -5.32284,-1.080859 -2.12421,0.181079 -4.89806,0.937119 -8.30933,2.255396 -0.93711,0.680865 -2.00542,1.355613 -3.2049,2.024097 l 0.0187,0.21247 c 0.0813,-0.006 0.18752,-0.0499 0.3187,-0.12491 0.13747,-0.0126 0.21247,0.0499 0.22486,0.17497 l 0.21248,-0.11879 0.10623,-0.006 0.006,0.1 c 0.006,0.1 -0.7372,0.68103 -2.24284,1.74305 l 0.11879,0.18752 -0.10623,0.006 -0.23114,-0.0813 c 0.006,0.0624 -0.1,0.10624 -0.31871,0.12491 l 0.0126,0.11251 0.24981,0.27493 c -0.0811,0.006 -0.19364,-0.0188 -0.33721,-0.0687 -0.48739,0.0436 -0.96223,0.39355 -1.43079,1.05574 l 0.11879,0.18753 c 0.40611,-0.37489 0.64336,-0.56224 0.71209,-0.56852 l 0.0251,0.30615 c -0.0687,0.006 -0.17496,0.0499 -0.3187,0.1249 l 0.25625,0.38728 c 0.49351,-0.53102 1.03708,-0.98702 1.63054,-1.36818 0.29359,0.075 0.44989,0.16869 0.456,0.26865 l 0.22503,-0.0187 c 1.61187,-1.19338 3.20491,-2.05549 4.78555,-2.5865 l 0.0188,0.21231 c -0.29376,0.43733 -0.49367,0.66236 -0.59991,0.67475 0.0126,0.15002 0.0626,0.2812 0.1563,0.39372 0.0249,0.26864 -0.69359,2.08043 -2.14916,5.42907 -3.30503,7.78443 -6.07888,13.54461 -8.33428,17.26813 0.006,0.075 0.0501,0.17497 0.13118,0.29988 0.55613,-0.13119 0.90589,-0.26848 1.05591,-0.39983 l 0.11863,-0.0124 0.0188,0.2123 0.20603,-0.0187 0.21247,-0.11862 c 0.006,0.0624 0.075,0.0937 0.21875,0.0811 l 0.0187,0.21247 c 0.0187,0.20619 -0.1,0.51845 -0.34993,0.94951 -0.22487,0.25625 -0.46856,0.79354 -0.72465,1.61204 l 0.006,0.0998 0.20619,-0.0187 c 0.89961,-1.00585 1.58064,-1.99303 2.04921,-2.9551 2.62399,-0.76843 4.62314,-1.52447 6.01014,-2.26779 1.39313,-0.11879 2.45515,-0.48739 3.17996,-1.09341 l -0.0126,-0.11235 -0.52474,0.15613 -0.11879,0.0126 -0.0124,-0.11251 c 1.02452,-0.15613 1.73049,-0.38117 2.12421,-0.69343 1.99287,-1.53702 3.4985,-2.624 4.51691,-3.26752 2.09298,-1.53686 3.45488,-3.03639 4.07346,-4.49196 0.45086,-0.9002 0.57074,-1.32433 0.37471,-2.16799 z m -18.49273,-7.25953 -0.10607,0.006 -0.0188,-0.19364 0.43105,-0.0375 0.006,0.1 c -0.0687,0.006 -0.17496,0.0438 -0.31242,0.12507 z m -2.10538,21.06039 c -0.24981,-0.11251 -0.47484,-0.15613 -0.66847,-0.13746 l -0.025,-0.30615 c -0.0125,-0.11863 0.0562,-0.19991 0.2062,-0.23114 0.13729,-0.0124 0.21858,0.0876 0.23114,0.28748 0.36232,-0.44361 0.56224,-0.66848 0.59974,-0.67475 l 0.23114,0.0937 c -0.075,0.62469 -0.26864,0.94339 -0.57479,0.96834 z m 22.49746,-23.53453 c -0.10624,0.0126 -0.31871,-0.31855 -0.62469,-0.974634 l -0.0188,-0.19363 c 0.19991,-0.0187 0.40611,0.30615 0.62469,0.974624 z m -0.29987,-2.330249 -0.0876,0.206193 -3.05505,-1.27466 c 2.03681,0.06873 3.08644,0.424942 3.14262,1.068467 z m -12.90125,11.076909 -0.43105,0.0375 -0.0187,-0.1938 0.43105,-0.0375 z m -0.34993,-6.65368 0.10623,-0.006 0.0251,0.30615 c -0.1,0.006 -0.23114,0.15613 -0.39371,0.44361 l -0.0187,-0.21247 c 0.19363,-0.23114 0.29359,-0.40611 0.28103,-0.53101 z m -0.90589,2.13661 0.0375,0.4061 -0.10607,0.006 -0.0375,-0.4061 z m -0.47468,0.76231 0.2062,-0.0188 c -0.0188,0.33738 -0.11252,0.51862 -0.28121,0.53102 l -0.10623,0.006 c 0.13118,-0.22487 0.19363,-0.39983 0.18124,-0.51846 z m -0.35621,1.06203 0.1188,-0.0126 0.006,0.1 -0.19364,0.32498 -0.20619,0.0187 -0.006,-0.1 c 0.20619,-0.0187 0.29987,-0.1249 0.28103,-0.3311 z m -0.34976,0.95595 -0.0625,0.51218 -0.10623,0.006 -0.0438,-0.50607 z m -3.50495,9.96482 c -0.13746,0.6997 -0.28731,1.05574 -0.44361,1.0683 l -0.006,-0.1 c -0.0375,-0.34365 0.11235,-0.66847 0.44972,-0.96834 z m -0.64352,1.39312 0.006,0.1 c 0.0126,0.13746 -0.0499,0.21875 -0.18736,0.22486 l -0.006,-0.1 c -0.0126,-0.11863 0.0499,-0.19363 0.18736,-0.22486 z m -0.18736,2.89264 0.32482,-0.0312 0.0126,0.11252 c -0.0813,0.006 -0.18753,0.0499 -0.31871,0.1249 l -0.20619,0.0187 c -0.0124,-0.10623 0.0563,-0.18736 0.18752,-0.22486 z m 9.24628,-2.85514 c -1.82417,0.89962 -2.89875,1.51192 -3.21746,1.83046 -1.97419,0.68731 -2.9551,1.11209 -2.93626,1.28077 -1.75561,0.69359 -2.91148,1.20577 -3.46744,1.52447 -0.13119,0.0124 -0.31854,-0.0375 -0.56852,-0.15001 -0.0312,-0.35605 0.13118,-0.64353 0.47484,-0.87467 0.30615,-0.025 0.59974,0.0188 0.88094,0.13746 0.32482,-0.16869 0.89334,-0.35604 1.69928,-0.55596 l -0.0187,-0.21247 -0.64981,0.0562 c 0.0811,-0.11235 0.70598,-0.40594 1.88052,-0.88078 l 0.32482,-0.0312 0.006,0.1 c -0.55596,0.0499 -0.86211,0.21231 -0.93084,0.50607 0.0124,0.13118 0.0874,0.18735 0.22486,0.1748 0.41866,-0.26237 0.62469,-0.4185 0.61858,-0.46229 0.79338,-0.14985 2.98632,-1.29944 6.57866,-3.44232 l 0.0187,0.19364 c 0.006,0.0937 -0.29987,0.35604 -0.91845,0.80593 z m -5.5102,1.81179 c 0.52474,-0.0438 0.97463,-0.25609 1.34934,-0.62469 0.15002,-0.0126 0.23131,0.0436 0.23742,0.1748 -0.25609,0.0251 -0.74959,0.23742 -1.46813,0.6498 l -0.10624,0.006 z m 8.89024,-6.82864 -2.75518,2.18666 c -2.04921,1.34323 -3.14873,2.01798 -3.31131,2.03054 -3.26108,1.79295 -5.29161,2.72396 -6.07871,2.79269 l -0.1188,0.0124 c 0.1,-0.36861 1.54942,-3.3361 4.36078,-8.92147 1.23699,-0.10623 3.18623,-0.68103 5.84146,-1.7305 l 0.6498,-0.0563 c 1.34323,-0.11862 2.34908,0.14374 3.01127,0.76843 l 0.0375,0.40611 c -0.49351,1.43079 -1.04335,2.26795 -1.63682,2.51148 z m -5.38546,-3.02994 0.44361,-0.0375 0.006,0.1 -0.44361,0.0375 z m 6.2289,-1.05591 0.32482,-0.0312 c 0.29987,0.14374 0.456,0.26864 0.46856,0.38115 l 0.006,0.1 c -0.28748,0.025 -0.55613,-0.12506 -0.79966,-0.44988 z m 0.88078,-5.01669 c -0.28732,0.34348 -1.07458,0.93084 -2.36147,1.75544 -0.42494,0.0375 -2.00558,0.64981 -4.74193,1.84929 -0.13746,-0.0624 -0.2812,-0.0874 -0.43733,-0.075 l -0.0187,-0.19364 c -0.0312,-0.39355 0.14357,-0.88705 0.53101,-1.4868 0.2123,-1.12464 0.44361,-1.76816 0.6997,-1.92429 l 2.28034,-5.129214 c -0.0249,-0.31871 0.46228,-0.562403 1.46185,-0.731091 l 0.32499,-0.03123 0.0249,0.293758 c 0.9809,-0.150018 1.59303,-0.237418 1.83045,-0.256253 1.81195,-0.156132 2.75519,0.21247 2.83019,1.093416 l 0.2062,-0.0188 -0.0438,-0.51846 0.22503,-0.0188 c 0.53102,0.2936 0.81833,0.649814 0.85583,1.068314 0.025,0.28748 -0.13118,0.64352 -0.46228,1.06846 -0.13746,0.0124 -0.21875,-0.0876 -0.23114,-0.28748 l -0.22502,0.0188 -0.0499,0.62469 c -0.91845,1.37446 -1.58692,2.08043 -1.99914,2.11794 -0.37489,0.51845 -0.60603,0.77471 -0.69987,0.78099 z m 1.39956,3.59234 c -0.18752,-0.12507 -0.33737,-0.18125 -0.44989,-0.17497 l -0.0249,-0.30615 0.2062,-0.0188 0.456,0.26881 c 0.0188,0.14358 -0.0438,0.21859 -0.18736,0.23115 z m 1.44946,1.71794 c 0.19992,0.0813 0.31855,0.16869 0.34349,0.24997 l -0.1,0.025 0.006,0.006 c -0.0187,0 -0.0438,0.006 -0.0624,0.0126 l -0.15002,0.11863 z m 0.1373,0.86228 -0.0187,-0.0813 0.26237,-0.0625 0.0188,0.0813 z" />
  </g>
</svg>
