<?xml version="1.0" encoding="UTF-8" standalone="no"?>
<svg xmlns="http://www.w3.org/2000/svg" viewBox="0 0 8.4666665 8.4666669" height="32" width="32">
  <path fill="#00d8ff" d="M 6.9612992,2.9081846 C 6.8734691,2.8779533 6.7824578,2.8493492 6.688749,2.8222955 6.7041503,2.7594358 6.7182865,2.6973937 6.7308553,2.6364019 6.9371715,1.6349196 6.8022753,0.82811764 6.3416439,0.56248127 5.8999554,0.30777483 5.177609,0.57332918 4.4480739,1.2082419 4.3779202,1.2692918 4.3075714,1.3339295 4.2372515,1.4016708 4.1903975,1.3568504 4.1436189,1.3135381 4.0969602,1.2721096 3.3323863,0.59324173 2.5660175,0.30715835 2.1058388,0.57356202 1.6645725,0.82900664 1.5338962,1.5874772 1.7196098,2.5365905 1.7375459,2.6282634 1.7585076,2.7218809 1.7822137,2.8170674 1.6737501,2.8478569 1.56904,2.8806785 1.4688513,2.9155982 0.57246996,3.2281188 0,3.7179102 0,4.2259552 c 0,0.5247111 0.61454744,1.0510044 1.5481974,1.3701236 0.07368,0.025188 0.1501339,0.048996 0.2289228,0.071602 -0.025575,0.102944 -0.047819,0.203827 -0.066491,0.3022229 -0.17708,0.9326404 -0.038793,1.6731906 0.4012986,1.9270266 0.4545727,0.2621359 1.2174739,-0.0073 1.9603464,-0.6566694 0.058715,-0.051329 0.1176414,-0.1057645 0.1766726,-0.1628246 0.076514,0.073684 0.1529061,0.1434148 0.2288913,0.2088198 C 5.1973968,7.9054604 5.9080793,8.155497 6.3477631,7.9009546 6.8018831,7.6380646 6.9494695,6.8425339 6.757862,5.8746431 6.7432301,5.8007208 6.7261991,5.7252008 6.707074,5.6483446 6.7606503,5.6324961 6.8132465,5.6161501 6.8645315,5.5991533 7.8351504,5.2775628 8.4666667,4.7576751 8.4666667,4.2259552 8.4666667,3.7160714 7.8757354,3.222978 6.9612992,2.9081846 Z M 6.7507789,5.2558299 C 6.7044827,5.2711758 6.6569802,5.2859713 6.6085728,5.3003355 6.5014216,4.9611079 6.356804,4.6003988 6.1798316,4.2277173 6.3487115,3.8639126 6.4877378,3.5078125 6.5918903,3.1707889 c 0.08661,0.025056 0.1706737,0.051496 0.2516788,0.079391 0.7834876,0.2697189 1.261405,0.6685015 1.261405,0.9757754 0,0.3273002 -0.5161362,0.7521839 -1.3541952,1.0298746 z M 6.4030415,5.9448843 c 0.084726,0.42799 0.096828,0.8149405 0.040705,1.1174386 C 6.3933202,7.3341347 6.2919102,7.5153584 6.1665239,7.5879389 5.899699,7.7423788 5.3290989,7.5416262 4.7137227,7.0120759 4.6431764,6.9513725 4.5721188,6.8865549 4.5008353,6.8179537 4.7394027,6.5570375 4.9778341,6.2537139 5.2105377,5.9168385 5.6198389,5.8805191 6.0065354,5.8211413 6.3572115,5.7400756 c 0.017272,0.069673 0.032612,0.1380014 0.04583,0.2048087 z M 2.8864774,7.5612504 C 2.6257877,7.6533121 2.4181601,7.6559527 2.2926526,7.5835812 2.0255875,7.4295461 1.9145625,6.8349532 2.0660076,6.0373588 2.0833537,5.9460167 2.104,5.8521875 2.1277963,5.7562787 2.4746301,5.8329735 2.8584925,5.8881603 3.2687726,5.9214211 3.5030452,6.2510601 3.7483627,6.554053 3.9955801,6.8193534 3.9415678,6.8715001 3.8877653,6.9211439 3.8342652,6.9679196 3.5057726,7.2550613 3.1765864,7.4587825 2.8864774,7.5612504 Z M 1.665175,5.253827 C 1.2523324,5.1127195 0.91139111,4.9293288 0.67769264,4.7292059 0.46769999,4.5493686 0.36167774,4.3708278 0.36167774,4.2259552 c 0,-0.3083005 0.45963729,-0.7015348 1.22623096,-0.9688116 C 1.6809238,3.224711 1.778295,3.1941463 1.8793425,3.1654417 1.9852888,3.5100721 2.1242702,3.8703949 2.2919901,4.2347526 2.1221001,4.6045263 1.9811449,4.9705906 1.8741588,5.3192611 1.8021212,5.2985443 1.73233,5.2767638 1.665175,5.253827 Z M 2.0745674,2.4671295 C 1.9154526,1.6539538 2.0211264,1.0405198 2.2870464,0.88659052 2.5702976,0.72260975 3.196645,0.95641142 3.8567953,1.54258 3.8989939,1.5800477 3.9413564,1.6192589 3.9838402,1.6598301 3.7378439,1.9239743 3.4947714,2.2246891 3.2625789,2.5523835 2.864385,2.5892902 2.4832201,2.6485781 2.1327699,2.7279689 2.1107381,2.6393415 2.09122,2.5522618 2.0745674,2.4671295 Z M 5.7267052,3.368938 C 5.6429278,3.2242295 5.5569202,3.0829445 5.4692389,2.9455146 5.739379,2.9796644 5.9982002,3.0249981 6.2412592,3.0804707 6.1682865,3.314336 6.0773366,3.5588559 5.9702753,3.8095248 5.8934752,3.6637156 5.8122452,3.5167025 5.7267052,3.368938 Z M 4.2373727,1.9183201 c 0.1668312,0.1807422 0.3339026,0.3825346 0.4982324,0.60148 -0.1655961,-0.00781 -0.3332401,-0.01188 -0.5022712,-0.01188 -0.167435,0 -0.3338436,0.00397 -0.4984137,0.011668 C 3.8994151,2.3026777 4.0679338,2.1011551 4.2373727,1.9183334 Z M 2.7384999,3.3714383 C 2.6548138,3.5165544 2.57509,3.6627684 2.4994965,3.8092523 2.3941688,3.5594565 2.3040612,3.3138227 2.2304562,3.0766448 2.4720224,3.0225851 2.7296237,2.9783838 2.9980453,2.9448823 2.9091289,3.0835742 2.8224128,3.2259016 2.7384999,3.3714066 Z M 3.0057765,5.5328275 C 2.7284489,5.5018871 2.4669736,5.4599613 2.2254688,5.4073939 2.3002488,5.1659801 2.3923452,4.9150995 2.4999037,4.6599248 c 0.075789,0.1463807 0.1558288,0.2926556 0.240029,0.4380865 h 1.48e-5 C 2.8257145,5.24617 2.9145701,5.3912992 3.0057765,5.5328275 Z M 4.247379,6.5590854 C 4.0759515,6.3741258 3.9049613,6.1695261 3.737964,5.949451 c 0.1621137,0.00635 0.3273936,0.0096 0.4953699,0.0096 0.1725726,0 0.3431714,-0.00389 0.5110876,-0.011377 C 4.5795488,6.1717195 4.4130801,6.3766314 4.247379,6.5590616 Z M 5.9737265,4.6469179 C 6.0868915,4.9048522 6.1822878,5.1544204 6.2580316,5.3917226 6.0125478,5.4477216 5.7475027,5.4928305 5.4682453,5.5263452 5.5561365,5.3870659 5.6428979,5.2433522 5.7281514,5.0955242 5.8144003,4.9459632 5.8962941,4.7961772 5.9737265,4.6469179 Z M 5.4148503,4.914827 C 5.2825002,5.1443081 5.1466239,5.3633725 5.0086839,5.5701576 c -0.2512425,0.017965 -0.5108011,0.027218 -0.77535,0.027218 -0.2634787,0 -0.5197687,-0.00818 -0.7665638,-0.024209 C 3.3232677,5.3636688 3.1844377,5.1439562 3.0529326,4.9167955 h 2.99e-5 C 2.9218038,4.6902566 2.8010887,4.4618021 2.6917065,4.2346309 2.8010575,4.0069278 2.9214564,3.7782193 3.0518627,3.5520826 l -2.99e-5,4.76e-5 C 3.182584,3.3253955 3.3201938,3.1067517 3.462369,2.898567 3.7141677,2.879517 3.9723714,2.8696004 4.2333177,2.8696004 h 1.62e-5 c 0.2621213,0 0.5206563,0.010001 0.7723801,0.029207 0.1400061,0.2066607 0.2766811,0.4245954 0.4079449,0.6513619 0.1327563,0.2293143 0.2547075,0.4565041 0.3649938,0.679323 C 5.6686977,4.4561374 5.547019,4.6856185 5.4148503,4.9148244 Z M 6.1609777,0.87582992 C 6.4445002,1.0393292 6.5547565,1.6987265 6.3766226,2.5634008 6.3652614,2.6185743 6.3524635,2.6747718 6.3385689,2.7317207 5.9873052,2.6506736 5.6058689,2.5903618 5.206514,2.5528968 4.9738701,2.2216014 4.7327865,1.9204156 4.4907988,1.6596661 4.5558578,1.5970763 4.6208278,1.5373969 4.6855253,1.4810803 5.3105915,0.93710742 5.8948016,0.72233723 6.1609777,0.87582992 Z M 4.2333339,3.4699083 c 0.4175437,0 0.7560439,0.3384868 0.7560439,0.7560469 0,0.4175416 -0.3385002,0.7560416 -0.7560439,0.7560416 -0.4175451,0 -0.7560451,-0.3385 -0.7560451,-0.7560416 0,-0.4175601 0.3385,-0.7560469 0.7560451,-0.7560469 z" />
</svg>
